<svg id="Layer_1" data-name="Layer 1" xmlns="http://www.w3.org/2000/svg" viewBox="0 0 1743.29 875.24"><defs><style>.cls-1{fill:none;}.cls-2{fill:#fff;}</style></defs><title>logo</title><path class="cls-1" d="M562.83,631.58A271.84,271.84,0,0,1,710,771.78a6.68,6.68,0,1,0,12.15-5.56A285.15,285.15,0,0,0,567.78,619.17a6.68,6.68,0,0,0-4.95,12.41Z" transform="translate(-154.12 -55.95)"/><path class="cls-1" d="M580.19,660.21a6.68,6.68,0,0,0-5.72,12.08,205.28,205.28,0,0,1,92.34,87.84,6.67,6.67,0,0,0,5.89,3.52,6.6,6.6,0,0,0,3.15-.79,6.68,6.68,0,0,0,2.73-9.05A218.72,218.72,0,0,0,580.19,660.21Z" transform="translate(-154.12 -55.95)"/><path class="cls-1" d="M487.5,837.35a18.82,18.82,0,1,0,18.82,18.82A18.81,18.81,0,0,0,487.5,837.35Z" transform="translate(-154.12 -55.95)"/><path class="cls-2" d="M293.05,211.66c64.7,5.52,115.85,53.51,115.85,53.51a201.9,201.9,0,0,0-48.75-7.62c-14.63-.54-34.3,2.62-47.68,4.3-31.84,4-46.86,21.3-46.86,21.3s5.27.14,8.36,2.13c2.6,1.68,3.11,5.25,3.11,5.25s-25.43,11.13-40.19,23.35c-17.73,14.68-25.33,30.89-25.33,30.89l16-3.56,14.82-3.3s-33.07,43.3-46.39,77.28c-15.78,40.26-12.23,72.28-12.23,72.28a120.47,120.47,0,0,1,13.76-36.59c12.33-21.35,32.8-44.08,32.8-44.08a46.62,46.62,0,0,0-4.08,13.35,138.21,138.21,0,0,0-1.07,20.3s19.67-39.69,47.91-73.82c26.88-32.48,62.42-59.49,62.42-59.49s-2,6.24-2.22,10.06c-.24,4.57,1.34,6.85,1.34,6.85s19.57-16.24,38.77-28.51A264.56,264.56,0,0,1,408.29,277a6.17,6.17,0,0,0,1.42,5.16c1.91,2.13,6.58,3.74,6.58,3.74s-34.1,29.61-53.69,54.86c-15.28,19.69-17.15,36.41-17.15,36.41l26.41-19S361,377.66,359.51,400c-2.16,32.38,4.76,71.47,4.76,71.47s.69-30.61,6.11-52.26c5.27-21,15.28-33.11,15.28-33.11s-2.56,13.26-1.14,22a37.35,37.35,0,0,0,7.57,17.35s1.81-40.17,10.55-72.37a186.87,186.87,0,0,1,23-51.37l13.81,27.85s35.67,97.79,48.18,212.93c.64,5.85,1.18,11.66,1.67,17.46-.6,0-1.19,0-1.8,0A302.57,302.57,0,0,0,426.89,566c-132.17,27-232.76,140.78-239.78,279.2-.12,2.45-.12,4.93-.18,7.4,7-3.42,14.42-6.63,28.35-6.63,29.85,0,29.85,14.71,59.69,14.71s29.85-14.71,59.69-14.71c28.65,0,29.87,13.53,56.33,14.61a96.51,96.51,0,0,1,90.87-96.25c-5.42,35.65-12.1,64.94-17.74,85l-1.86,6.92a25.25,25.25,0,0,0,50.49,0l.4-1.91s5-34,9.43-83.56a96.66,96.66,0,0,1,59.55,70.82c19.53,4.81,25.77,16.17,55,16.17,37.12,0,37.12-18.3,74.24-18.3s37.11,18.3,74.22,18.3c.92,0,1.71-.06,2.57-.08,0-4.17-.1-8.33-.31-12.46C780.89,706.73,680.29,593,548.13,566c-7.14-1.46-14.39-2.57-21.7-3.52a562.65,562.65,0,0,0-7.81-60.93c-24.76-130.26-80.79-206-80.79-206l11.91-1.07A62.81,62.81,0,0,1,461,306.88c9.78,14.58,21.81,36.75,21.81,36.75l2.12-8.37a151,151,0,0,1,24.22,23.3c12.54,15.34,23.58,35.15,23.58,35.15a53,53,0,0,0,1.68-32.14c-5.81-22.67-22.8-50.36-22.8-50.36a19.84,19.84,0,0,1,10.05,2.22c10.26,5.05,24.65,14.85,24.65,14.85s-25.62-25.72-52.15-40c-19.3-10.4-41.82-10.65-41.82-10.65s47.43-54.55,134.92-52.34c59,1.5,127.94,49,127.94,49s1.57-29.18-25.83-57.3c-16.29-16.72-51.37-36.94-75.81-41.25-38.29-6.75-69.74,4.85-69.74,4.85l.88-16.91s-25.85,8.29-45.61,29.85c-29.45,32.12-56.8,81.82-56.8,81.82l-4.9-3.64s8.8-39,27.45-71.49c16.65-29,43.38-52,43.38-52l-10.31,2.85s.21-10.78,23.56-29.29c33.4-26.5,100.84-49,100.84-49s-53-2.31-88.86,14c-50.21,22.87-88.2,66.63-88.2,66.63a91.43,91.43,0,0,0-2.85-10.32c-1.56-4.08-3.12-5.25-3.12-5.25a30.64,30.64,0,0,1-2.31,11.75c-5.18,12.79-15.19,31.43-15.19,31.43l-3.12-5.25s-6.2,25.09-4.15,47.26c2.27,24.57,12.84,46.45,12.84,46.45l-5-2s-18.71-44.31-43.46-76.86c-17.64-23.21-43.79-37.89-43.79-37.89L334.3,168a138.79,138.79,0,0,0-43.5-10.75c-22.74-1.67-49.71,2.81-49.73,2.64-17.63,4-37.6,15.14-48.2,22.79-34.16,24.67-38.88,60.55-38.75,60.73C154.12,243.44,230.4,206.32,293.05,211.66Zm382.8,551.2a6.6,6.6,0,0,1-3.15.79,6.67,6.67,0,0,1-5.89-3.52,205.28,205.28,0,0,0-92.34-87.84,6.68,6.68,0,0,1,5.72-12.08,218.72,218.72,0,0,1,98.39,93.6A6.68,6.68,0,0,1,675.85,762.86ZM559.1,622.9a6.66,6.66,0,0,1,8.68-3.73A285.15,285.15,0,0,1,722.14,766.22,6.68,6.68,0,0,1,710,771.78a271.84,271.84,0,0,0-147.16-140.2A6.68,6.68,0,0,1,559.1,622.9ZM506.32,856.17a18.82,18.82,0,1,1-18.82-18.82A18.82,18.82,0,0,1,506.32,856.17Z" transform="translate(-154.12 -55.95)"/><path class="cls-2" d="M241.07,159.92l.45-.11A2.52,2.52,0,0,0,241.07,159.92Z" transform="translate(-154.12 -55.95)"/><path class="cls-2" d="M197.57,919.38a52.08,52.08,0,0,1,18.49-2.89c13.36,0,19.63,3.09,26.89,6.66,7.65,3.77,16.32,8.05,32.8,8.05s25.14-4.28,32.79-8.05c7.26-3.57,13.53-6.66,26.89-6.66s19.63,3.09,26.89,6.66c5.69,2.81,12.15,6,22,7.35a6.68,6.68,0,1,0,1.83-13.24c-7.67-1-12.4-3.39-17.88-6.09-7.65-3.77-16.32-8-32.8-8s-25.15,4.28-32.79,8c-7.26,3.57-13.53,6.66-26.89,6.66s-19.64-3.09-26.89-6.66c-7.65-3.77-16.32-8-32.8-8A65.54,65.54,0,0,0,193,906.83a6.68,6.68,0,0,0,4.58,12.55Z" transform="translate(-154.12 -55.95)"/><path class="cls-2" d="M780.25,880.57c-13.89-.68-21.45-4.4-29.45-8.34-9.35-4.62-19.95-9.84-40.06-9.84s-30.73,5.22-40.08,9.84c-8.82,4.35-17.16,8.46-34.16,8.46s-25.33-4.11-34.16-8.46c-2.56-1.26-5.12-2.52-7.87-3.7a6.68,6.68,0,0,0-5.26,12.29c2.52,1.08,4.87,2.24,7.22,3.4,9.36,4.61,20,9.83,40.07,9.83s30.71-5.22,40.07-9.84c8.83-4.35,17.17-8.46,34.17-8.46s25.33,4.11,34.15,8.46c8.46,4.17,18.05,8.9,34.72,9.71a6.68,6.68,0,1,0,.64-13.35Z" transform="translate(-154.12 -55.95)"/><path class="cls-2" d="M780.26,917.72c-13.9-.68-21.46-4.41-29.45-8.35-9.36-4.61-20-9.84-40.07-9.84s-30.72,5.23-40.07,9.84c-8.83,4.35-17.17,8.46-34.17,8.46s-25.34-4.11-34.16-8.46c-2.56-1.26-5.12-2.52-7.87-3.7A6.68,6.68,0,0,0,589.21,918c2.52,1.08,4.87,2.24,7.22,3.39,9.36,4.62,20,9.85,40.07,9.85s30.72-5.23,40.08-9.85c8.82-4.35,17.16-8.46,34.16-8.46s25.33,4.11,34.15,8.46c8.46,4.18,18.05,8.9,34.72,9.72a6.68,6.68,0,1,0,.65-13.35Z" transform="translate(-154.12 -55.95)"/><path class="cls-2" d="M197.57,883.65a52.07,52.07,0,0,1,18.49-2.9c13.36,0,19.63,3.09,26.89,6.67,7.65,3.77,16.32,8.05,32.8,8.05s25.14-4.28,32.79-8.05c7.26-3.58,13.53-6.67,26.89-6.67s19.63,3.09,26.89,6.67c5.69,2.81,12.15,6,22,7.35a6.68,6.68,0,1,0,1.83-13.24c-7.67-1.06-12.4-3.4-17.88-6.1-7.65-3.77-16.32-8-32.8-8s-25.15,4.28-32.79,8c-7.26,3.58-13.53,6.67-26.89,6.67s-19.64-3.09-26.89-6.67c-7.65-3.77-16.32-8-32.8-8A65.77,65.77,0,0,0,193,871.09a6.68,6.68,0,0,0,4.58,12.56Z" transform="translate(-154.12 -55.95)"/><path class="cls-2" d="M899.9,83.59V56h18.79V83.59Zm0,174.08v-144h18.79v144Z" transform="translate(-154.12 -55.95)"/><path class="cls-2" d="M1007.94,260.43a100,100,0,0,1-32.88-5.53,78.83,78.83,0,0,1-27.63-16L956,226.17a93.93,93.93,0,0,0,24.73,14.92,72.68,72.68,0,0,0,26.95,5q17.4,0,27.77-7t10.36-20A17.36,17.36,0,0,0,1043,208.9a24,24,0,0,0-8.15-7.05,64.24,64.24,0,0,0-13.54-5.39q-8.15-2.34-18.92-4.83-12.43-3-21.56-6.08a66,66,0,0,1-15.06-6.91,25,25,0,0,1-8.84-9.53q-2.9-5.67-2.9-14.23a40.9,40.9,0,0,1,4.28-19.07A38.81,38.81,0,0,1,970,122.13,52.69,52.69,0,0,1,987.08,114a76.68,76.68,0,0,1,20.86-2.76,80.68,80.68,0,0,1,30.12,5.39q13.53,5.39,21.83,14.23l-9.12,11a50.48,50.48,0,0,0-19.48-12.43,69.63,69.63,0,0,0-23.9-4.15,59.59,59.59,0,0,0-13.82,1.52,33.15,33.15,0,0,0-11.19,4.84,23.88,23.88,0,0,0-7.6,8.42,25,25,0,0,0-2.76,12,19.79,19.79,0,0,0,1.93,9.4,16.54,16.54,0,0,0,6.36,6.22,51.39,51.39,0,0,0,11.19,4.69q6.76,2.07,16.44,4.29,13.81,3.31,24.32,6.63a76.48,76.48,0,0,1,17.54,7.73,30.51,30.51,0,0,1,10.64,10.78,31.07,31.07,0,0,1,3.6,15.47q0,19.91-15.2,31.5T1007.94,260.43Z" transform="translate(-154.12 -55.95)"/><path class="cls-2" d="M1095.54,56h18.79V225.06c0,5.35,1.47,9.53,4.42,12.57s7.08,4.56,12.43,4.56a36.78,36.78,0,0,0,7.18-.83,46.31,46.31,0,0,0,7.74-2.21l3.32,15.2a61.69,61.69,0,0,1-12.85,3.59,75,75,0,0,1-13.13,1.38q-13,0-20.44-7.32t-7.46-20.58Z" transform="translate(-154.12 -55.95)"/><path class="cls-2" d="M1206.06,260.43a50.9,50.9,0,0,1-18.93-3.45,47.84,47.84,0,0,1-15.2-9.54,42.95,42.95,0,0,1-13.67-31.77,35.43,35.43,0,0,1,4.42-17.41,42.12,42.12,0,0,1,12.43-13.82,60.87,60.87,0,0,1,19.07-9,88,88,0,0,1,24.31-3.18,132.92,132.92,0,0,1,22.39,1.94,96.84,96.84,0,0,1,20.17,5.53v-13q0-19.06-10.78-30.26t-29.84-11.19a63.59,63.59,0,0,0-22.66,4.42,109.58,109.58,0,0,0-23.49,12.71L1167.65,130q27.9-18.79,54.16-18.79,27.07,0,42.55,15.2t15.48,42v64.93q0,7.74,6.91,7.74v16.58a45.26,45.26,0,0,1-7.19.83q-7.18,0-11.19-3.6t-4.28-9.94l-.56-11.33a65.18,65.18,0,0,1-25,19.89A77,77,0,0,1,1206.06,260.43Zm4.42-14.37a65,65,0,0,0,26.94-5.52q12.3-5.53,18.65-14.65a17.16,17.16,0,0,0,3.73-5.39,13.74,13.74,0,0,0,1.25-5.39V191.63a115,115,0,0,0-19.48-5.53,109.1,109.1,0,0,0-20.59-1.93q-19.89,0-32.33,8.29t-12.43,21.82a29.81,29.81,0,0,0,2.62,12.44A31.42,31.42,0,0,0,1186,236.8a33.38,33.38,0,0,0,10.91,6.77A36.79,36.79,0,0,0,1210.48,246.06Z" transform="translate(-154.12 -55.95)"/><path class="cls-2" d="M959,592a62.14,62.14,0,0,1-27.64-6.21,70.38,70.38,0,0,1-21.82-16.44,75.45,75.45,0,0,1-14.23-23.63,77.75,77.75,0,0,1-5.12-28.05,83.72,83.72,0,0,1,5-28.87,77,77,0,0,1,13.67-23.9,64.67,64.67,0,0,1,20.73-16.17A58.73,58.73,0,0,1,956,442.8a56.38,56.38,0,0,1,32.33,9.53,72.19,72.19,0,0,1,22.1,23.08V387.54h18.79V564.93q0,7.74,6.63,7.74v16.58a35.84,35.84,0,0,1-6.63.83,17.24,17.24,0,0,1-11.6-4.28,13.21,13.21,0,0,1-5-10.37V561.34a62.88,62.88,0,0,1-23.21,22.38A60.83,60.83,0,0,1,959,592Zm4.14-16.58A44.82,44.82,0,0,0,978,572.67a60.57,60.57,0,0,0,14.79-7.6,50.83,50.83,0,0,0,11.74-11.33,30.68,30.68,0,0,0,5.94-14V495.3a49.38,49.38,0,0,0-8-13.95,64.7,64.7,0,0,0-12-11.47,56.7,56.7,0,0,0-14.51-7.74,45,45,0,0,0-15.2-2.76,44.28,44.28,0,0,0-21,5,53.23,53.23,0,0,0-16.16,13.13,58.4,58.4,0,0,0-10.36,18.65,66,66,0,0,0-3.59,21.55,60.3,60.3,0,0,0,15.47,40.48,54.78,54.78,0,0,0,17,12.58A48.34,48.34,0,0,0,963.18,575.43Z" transform="translate(-154.12 -55.95)"/><path class="cls-2" d="M1133.94,592a69.19,69.19,0,0,1-28.87-5.94,70.76,70.76,0,0,1-22.8-16.3,75.77,75.77,0,0,1-15.06-23.9,77.81,77.81,0,0,1-5.38-29,76,76,0,0,1,5.38-28.6,74.22,74.22,0,0,1,14.92-23.48,71.12,71.12,0,0,1,22.8-16,72.81,72.81,0,0,1,57.61,0,68.71,68.71,0,0,1,22.52,16.17,75.83,75.83,0,0,1,19.9,51.67V521a11.21,11.21,0,0,1-.28,3H1081.44a60.65,60.65,0,0,0,5.39,21.41,58.72,58.72,0,0,0,11.75,17A52.37,52.37,0,0,0,1115,573.64a49.18,49.18,0,0,0,19.75,4,51,51,0,0,0,13.82-1.93,56,56,0,0,0,12.71-5.25,47.29,47.29,0,0,0,10.5-8.15,35,35,0,0,0,7.19-10.64l16.3,4.42a47.86,47.86,0,0,1-9.4,14.51,65.42,65.42,0,0,1-14.09,11.33,69.19,69.19,0,0,1-17.68,7.46A76.75,76.75,0,0,1,1133.94,592ZM1187,509.67a57.74,57.74,0,0,0-17-37.58,51.53,51.53,0,0,0-16.3-10.78,50.89,50.89,0,0,0-19.76-3.86,51.86,51.86,0,0,0-19.89,3.86,51.27,51.27,0,0,0-16.44,10.78,52.86,52.86,0,0,0-11.33,16.58,62.62,62.62,0,0,0-5.11,21Z" transform="translate(-154.12 -55.95)"/><path class="cls-2" d="M1281.77,592a100.29,100.29,0,0,1-32.88-5.52,79.18,79.18,0,0,1-27.63-16l8.57-12.71a93.35,93.35,0,0,0,24.73,14.92,72.46,72.46,0,0,0,26.94,5q17.4,0,27.77-7t10.36-20a17.39,17.39,0,0,0-2.76-10.09,24,24,0,0,0-8.16-7.05,64,64,0,0,0-13.54-5.39q-8.14-2.34-18.92-4.83-12.43-3-21.56-6.08a65.77,65.77,0,0,1-15.06-6.91,24.86,24.86,0,0,1-8.84-9.53q-2.89-5.65-2.9-14.23a41.06,41.06,0,0,1,4.28-19.07,39,39,0,0,1,11.61-13.67,52.7,52.7,0,0,1,17.13-8.16,76.68,76.68,0,0,1,20.86-2.76,80.84,80.84,0,0,1,30.12,5.39q13.54,5.38,21.83,14.23l-9.12,11.05A50.6,50.6,0,0,0,1305.12,461a69.59,69.59,0,0,0-23.9-4.15,59.59,59.59,0,0,0-13.82,1.52,33.44,33.44,0,0,0-11.19,4.84,23.71,23.71,0,0,0-7.59,8.43,24.81,24.81,0,0,0-2.77,12,19.77,19.77,0,0,0,1.94,9.39,16.37,16.37,0,0,0,6.35,6.22,52.3,52.3,0,0,0,11.19,4.7q6.76,2.07,16.44,4.28,13.82,3.31,24.32,6.63a76.32,76.32,0,0,1,17.55,7.74,30.54,30.54,0,0,1,10.63,10.77q3.6,6.36,3.6,15.48,0,19.89-15.2,31.5T1281.77,592Z" transform="translate(-154.12 -55.95)"/><path class="cls-2" d="M1368.54,415.17V387.54h18.79v27.63Zm0,174.08v-144h18.79v144Z" transform="translate(-154.12 -55.95)"/><path class="cls-2" d="M1490.94,592a69.19,69.19,0,0,1-28.87-5.94,70.76,70.76,0,0,1-22.8-16.3,75.6,75.6,0,0,1-15.06-23.9,77.82,77.82,0,0,1-5.39-29,76.05,76.05,0,0,1,5.39-28.6,74,74,0,0,1,14.92-23.48,71.12,71.12,0,0,1,22.8-16,72.81,72.81,0,0,1,57.61,0,68.71,68.71,0,0,1,22.52,16.17,75.83,75.83,0,0,1,19.9,51.67V521a11.21,11.21,0,0,1-.28,3H1438.44a60.65,60.65,0,0,0,5.39,21.41,58.72,58.72,0,0,0,11.75,17A52.37,52.37,0,0,0,1472,573.64a49.18,49.18,0,0,0,19.75,4,51,51,0,0,0,13.82-1.93,56,56,0,0,0,12.71-5.25,47.29,47.29,0,0,0,10.5-8.15,34.82,34.82,0,0,0,7.18-10.64l16.31,4.42a47.86,47.86,0,0,1-9.4,14.51,65.42,65.42,0,0,1-14.09,11.33,69.34,69.34,0,0,1-17.68,7.46A76.75,76.75,0,0,1,1490.94,592ZM1544,509.67a58.3,58.3,0,0,0-5.39-21.14A57.65,57.65,0,0,0,1527,472.09a51.53,51.53,0,0,0-16.3-10.78,50.89,50.89,0,0,0-19.76-3.86,51.86,51.86,0,0,0-19.89,3.86,51,51,0,0,0-16.44,10.78,52.86,52.86,0,0,0-11.33,16.58,62.62,62.62,0,0,0-5.11,21Z" transform="translate(-154.12 -55.95)"/><path class="cls-2" d="M1662.81,461.87q-19.07.56-33.16,10.5t-19.89,27.35v89.53H1591v-144h17.68v34.54q8-16.59,21.56-26a49.94,49.94,0,0,1,29-9.39,19.37,19.37,0,0,1,3.59.27Z" transform="translate(-154.12 -55.95)"/><path class="cls-2" d="M1757,582.34q-1.66.82-4.84,2.21t-7.32,2.77a85,85,0,0,1-9.4,2.48,53.29,53.29,0,0,1-11,1.11,40.09,40.09,0,0,1-11.61-1.66,27.26,27.26,0,0,1-9.67-5.11,25.13,25.13,0,0,1-6.63-8.71,28,28,0,0,1-2.49-12.15V460.21h-19.89V445.29H1694V396.66h18.79v48.63H1746v14.92h-33.16V558q.56,8,5.67,11.74a19.38,19.38,0,0,0,11.74,3.73,35.28,35.28,0,0,0,14.09-2.62,61.13,61.13,0,0,0,7.74-3.74Z" transform="translate(-154.12 -55.95)"/><path class="cls-2" d="M1816.72,592a50.9,50.9,0,0,1-18.93-3.45,47.81,47.81,0,0,1-15.2-9.53,43,43,0,0,1-13.68-31.78,35.47,35.47,0,0,1,4.43-17.41A41.88,41.88,0,0,1,1785.77,516a61.1,61.1,0,0,1,19.07-9,88,88,0,0,1,24.31-3.17,132.69,132.69,0,0,1,22.38,1.93,97.56,97.56,0,0,1,20.18,5.53v-13q0-19.06-10.78-30.26t-29.84-11.19a63.59,63.59,0,0,0-22.66,4.42A109.2,109.2,0,0,0,1784.94,474l-6.63-12.44q27.9-18.78,54.16-18.79,27.08,0,42.55,15.2t15.48,42v64.93q0,7.74,6.9,7.74v16.58a45,45,0,0,1-7.18.83q-7.18,0-11.19-3.59t-4.28-10l-.56-11.33a65.37,65.37,0,0,1-25,19.9A77.07,77.07,0,0,1,1816.72,592Zm4.42-14.37a64.88,64.88,0,0,0,26.94-5.52q12.29-5.52,18.65-14.65a17,17,0,0,0,3.73-5.39,13.74,13.74,0,0,0,1.25-5.38V523.21a115.79,115.79,0,0,0-19.49-5.53,109.75,109.75,0,0,0-20.58-1.93q-19.89,0-32.33,8.29t-12.43,21.83a29.8,29.8,0,0,0,2.62,12.43,31.54,31.54,0,0,0,7.18,10.09,33.6,33.6,0,0,0,10.92,6.77A36.75,36.75,0,0,0,1821.14,577.64Z" transform="translate(-154.12 -55.95)"/><path class="cls-2" d="M959,923.6a62.15,62.15,0,0,1-27.64-6.22,70.38,70.38,0,0,1-21.82-16.44,75.34,75.34,0,0,1-14.23-23.63,77.74,77.74,0,0,1-5.12-28,83.78,83.78,0,0,1,5-28.88,77.08,77.08,0,0,1,13.67-23.9,64.64,64.64,0,0,1,20.73-16.16,58.74,58.74,0,0,1,26.39-6q18.24,0,32.33,9.54a72.16,72.16,0,0,1,22.1,23.07V719.12h18.79v177.4q0,7.74,6.63,7.73v16.58a35,35,0,0,1-6.63.83,17.19,17.19,0,0,1-11.6-4.28,13.19,13.19,0,0,1-5-10.36v-14.1a63,63,0,0,1-23.21,22.39A60.94,60.94,0,0,1,959,923.6ZM963.18,907A44.59,44.59,0,0,0,978,904.25a60.54,60.54,0,0,0,14.79-7.59,51,51,0,0,0,11.74-11.33,30.71,30.71,0,0,0,5.94-14V826.88a49.38,49.38,0,0,0-8-14,64.7,64.7,0,0,0-12-11.47,56.67,56.67,0,0,0-14.51-7.73,45.06,45.06,0,0,0-15.2-2.77,44.17,44.17,0,0,0-21,5,53.06,53.06,0,0,0-16.16,13.12,58.4,58.4,0,0,0-10.36,18.65,66.08,66.08,0,0,0-3.59,21.56,59.72,59.72,0,0,0,4.14,22.1,59.09,59.09,0,0,0,11.33,18.38,54.75,54.75,0,0,0,17,12.57A48.35,48.35,0,0,0,963.18,907Z" transform="translate(-154.12 -55.95)"/><path class="cls-2" d="M1071.77,746.75V719.12h18.79v27.63Zm0,174.08v-144h18.79v144Z" transform="translate(-154.12 -55.95)"/><path class="cls-2" d="M1179.81,923.6a100.26,100.26,0,0,1-32.88-5.53,78.69,78.69,0,0,1-27.63-16l8.56-12.71a93.66,93.66,0,0,0,24.73,14.92,72.47,72.47,0,0,0,26.94,5q17.42,0,27.77-7.05t10.37-20a17.42,17.42,0,0,0-2.77-10.09,24,24,0,0,0-8.15-7,63.71,63.71,0,0,0-13.54-5.39q-8.14-2.34-18.93-4.84-12.43-3-21.55-6.08a65.58,65.58,0,0,1-15.06-6.9,24.88,24.88,0,0,1-8.84-9.54q-2.89-5.65-2.9-14.23a40.86,40.86,0,0,1,4.28-19.06,38.71,38.71,0,0,1,11.61-13.68,52.69,52.69,0,0,1,17.13-8.15,76.68,76.68,0,0,1,20.86-2.77,80.88,80.88,0,0,1,30.12,5.39q13.53,5.38,21.83,14.23l-9.12,11.06a50.58,50.58,0,0,0-19.48-12.44,69.86,69.86,0,0,0-23.9-4.14,59.53,59.53,0,0,0-13.82,1.52,33.14,33.14,0,0,0-11.19,4.83,23.83,23.83,0,0,0-7.6,8.43,25,25,0,0,0-2.76,12,19.74,19.74,0,0,0,1.93,9.39,16.47,16.47,0,0,0,6.36,6.22,51.37,51.37,0,0,0,11.19,4.7q6.77,2.07,16.44,4.28,13.82,3.32,24.32,6.63a76.47,76.47,0,0,1,17.54,7.74A30.43,30.43,0,0,1,1232.31,865q3.59,6.36,3.59,15.47,0,19.89-15.19,31.5T1179.81,923.6Z" transform="translate(-154.12 -55.95)"/><path class="cls-2" d="M1256.63,848.44a78.82,78.82,0,0,1,5.25-28.74,71.52,71.52,0,0,1,14.78-23.62,68.84,68.84,0,0,1,22.8-15.89,72.25,72.25,0,0,1,29.29-5.81q20.45,0,35.64,9.26a59.5,59.5,0,0,1,22.94,25l-18.24,5.8a43.82,43.82,0,0,0-17-17.27,50.14,50.14,0,0,0-44.77-1.8,52.73,52.73,0,0,0-16.58,12,55.23,55.23,0,0,0-11,18.1,63.91,63.91,0,0,0-4,22.94,63.13,63.13,0,0,0,4.15,22.93A58.37,58.37,0,0,0,1291.17,890a54,54,0,0,0,16.71,12.44,46.5,46.5,0,0,0,20.31,4.56,49.52,49.52,0,0,0,13.68-1.94,52.06,52.06,0,0,0,12.57-5.39,45,45,0,0,0,10-7.87,25.49,25.49,0,0,0,5.8-9.4l18.52,5.53a47.19,47.19,0,0,1-8.84,14.23,60.92,60.92,0,0,1-13.68,11.33,67,67,0,0,1-17.41,7.46A74.11,74.11,0,0,1,1329,923.6a69.91,69.91,0,0,1-52-22.25,75.57,75.57,0,0,1-15-23.9A77.53,77.53,0,0,1,1256.63,848.44Z" transform="translate(-154.12 -55.95)"/><path class="cls-2" d="M1478.24,923.6a68.45,68.45,0,0,1-28.74-5.94A70.49,70.49,0,0,1,1427,901.49a73.08,73.08,0,0,1-14.78-23.76,78.07,78.07,0,0,1-5.25-28.46,77.07,77.07,0,0,1,5.38-28.74,75.37,75.37,0,0,1,14.93-23.76,72.45,72.45,0,0,1,22.52-16.31,66.29,66.29,0,0,1,28.46-6.08,67.31,67.31,0,0,1,28.6,6.08,72.09,72.09,0,0,1,22.65,16.31,75.37,75.37,0,0,1,14.93,23.76,77.07,77.07,0,0,1,5.38,28.74,78.07,78.07,0,0,1-5.25,28.46,73.25,73.25,0,0,1-14.78,23.76,70.09,70.09,0,0,1-22.66,16.17A69.35,69.35,0,0,1,1478.24,923.6ZM1426,849.54a59.94,59.94,0,0,0,4.15,22.52,61,61,0,0,0,11.19,18.24,50.62,50.62,0,0,0,16.58,12.3,47.77,47.77,0,0,0,20.31,4.42,46.5,46.5,0,0,0,20.31-4.56A54,54,0,0,0,1515.26,890a59.16,59.16,0,0,0,11.33-18.37,63.56,63.56,0,0,0,0-45.18A58.81,58.81,0,0,0,1515.26,808a54,54,0,0,0-16.71-12.44,46.5,46.5,0,0,0-20.31-4.56,45.55,45.55,0,0,0-20.17,4.56,53.31,53.31,0,0,0-16.58,12.57,60.5,60.5,0,0,0-11.33,18.66A62.08,62.08,0,0,0,1426,849.54Z" transform="translate(-154.12 -55.95)"/><path class="cls-2" d="M1629.1,923.6a100.3,100.3,0,0,1-32.88-5.53,78.87,78.87,0,0,1-27.63-16l8.57-12.71a93.35,93.35,0,0,0,24.73,14.92,72.47,72.47,0,0,0,26.94,5q17.4,0,27.77-7.05t10.36-20a17.42,17.42,0,0,0-2.76-10.09,24,24,0,0,0-8.16-7,63.49,63.49,0,0,0-13.54-5.39q-8.14-2.34-18.92-4.84-12.43-3-21.56-6.08a65.78,65.78,0,0,1-15.06-6.9,25,25,0,0,1-8.84-9.54q-2.89-5.65-2.9-14.23A41,41,0,0,1,1579.5,799a38.91,38.91,0,0,1,11.61-13.68,52.69,52.69,0,0,1,17.13-8.15,76.68,76.68,0,0,1,20.86-2.77,80.84,80.84,0,0,1,30.12,5.39q13.54,5.38,21.83,14.23l-9.12,11.06a50.51,50.51,0,0,0-19.48-12.44,69.82,69.82,0,0,0-23.9-4.14,59.59,59.59,0,0,0-13.82,1.52,33.22,33.22,0,0,0-11.19,4.83,23.71,23.71,0,0,0-7.59,8.43,24.84,24.84,0,0,0-2.77,12,19.74,19.74,0,0,0,1.94,9.39,16.37,16.37,0,0,0,6.35,6.22,51.79,51.79,0,0,0,11.19,4.7q6.77,2.07,16.44,4.28,13.82,3.32,24.32,6.63a76.76,76.76,0,0,1,17.55,7.74A30.48,30.48,0,0,1,1681.6,865q3.6,6.36,3.6,15.47,0,19.89-15.2,31.5T1629.1,923.6Z" transform="translate(-154.12 -55.95)"/></svg>